# OBJ File Exported By Crafty (c) 2006 Ryan Gregg
# http://nemesis.thewavelength.net/

mtllib w_crowbar.mtl

v 7.550000 -1.360000 -2.680000
v 7.550000 1.360000 -2.680000
v 7.260000 1.360000 -2.270000
v 7.260000 -1.360000 -2.270000
v -2.580000 -1.290000 39.070000
v -2.010000 -1.290000 39.070000
v -2.010000 1.290000 39.070000
v -2.580000 1.290000 39.070000
v -1.130000 -0.750000 1.420000
v 0.030000 -0.750000 1.970000
v 0.500000 -0.750000 15.770000
v -0.790000 -0.750000 15.770000
v 0.030000 0.750000 1.970000
v 0.500000 0.750000 15.770000
v -1.130000 0.750000 1.420000
v -0.790000 0.750000 15.770000
v -0.040000 -0.750000 31.940001
v -1.210000 -0.750000 31.389999
v -0.040000 0.750000 31.940001
v -1.210000 0.750000 31.389999
v 0.330000 0.750000 -2.990000
v 0.330000 -0.750000 -2.990000
v 0.880000 0.750000 -1.820000
v 0.880000 -0.750000 -1.820000
v 3.930000 0.750000 -4.290000
v 3.930000 -0.750000 -4.290000
v 3.940000 0.750000 -3.290000
v 3.940000 -0.750000 -3.290000
v 6.230000 0.750000 -3.630000
v 6.230000 -0.750000 -3.630000
v 6.020000 0.750000 -2.840000
v 6.020000 -0.750000 -2.840000
vn 0.073695 0.000000 0.997281
vn -0.000026 0.000000 1.000000
vn 0.000000 -1.000000 0.000000
vn 0.841822 -0.000000 -0.539756
vn 0.000000 1.000000 -0.000000
vn -0.909225 0.000000 0.416305
vn 0.844351 0.000000 0.535791
vn -0.890509 -0.000000 -0.454966
vn 0.016773 -0.734986 -0.677875
vn 0.188531 0.000000 0.982067
vn 0.016479 0.745837 -0.665924
vn 0.000017 0.692599 -0.721322
vn -0.284902 -0.000000 -0.958557
vn -0.157274 -0.000000 -0.987555
vn 0.230900 0.000000 0.972978
vn -0.019177 -0.000000 -0.999816
vn 0.038223 -0.000000 -0.999269
vn -0.167752 0.518574 -0.838415
vn -0.069992 0.312395 -0.947370
vn -0.161696 -0.566289 -0.808190
vn -0.071171 -0.260700 -0.962793
vt 0.250000 -0.818182
vt 0.250000 -0.818182
vt 0.250000 -0.454545
vt 0.250000 -0.454545
vt 0.250000 -0.121212
vt 0.250000 -0.151515
vt 0.250000 -0.030303
vt 0.250000 -0.060606
vt 0.250000 -0.000000
vt 0.250000 -0.030303
vt 0.500000 -0.030303
vt 0.500000 -0.030303
vt 0.500000 -0.818182
vt 0.250000 -0.818182
vt 0.500000 -0.454545
vt 0.500000 -0.454545
vt 0.500000 -0.151515
vt 0.250000 -0.121212
vt 0.500000 -0.060606
vt 0.500000 -0.030303
vt 0.500000 -0.030303
vt 0.500000 -0.000000
vt 0.500000 -0.030303
vt 0.500000 -0.030303
vt 0.250000 -0.060606
vt 0.500000 -0.060606
vt 0.250000 -0.030303
vt 0.500000 -0.030303
vt 0.500000 -0.030303
vt 0.500000 -0.030303
vt 0.250000 -0.060606
vt 0.750000 -0.060606
vt 0.500000 -0.030303
vt 0.250000 -0.030303
vt 0.500000 -0.000000
vt 0.250000 -0.000000
vt 0.500000 -0.030303
vt 0.500000 -0.030303
vt 0.750000 -0.030303
vt 0.250000 -0.030303
vt 0.750000 -0.060606
vt 0.250000 -0.060606
vt 0.000000 -0.969697
vt 0.000000 -0.969697
vt 0.500000 -0.969697
vt 0.500000 -0.969697
vt 0.500000 -0.151515
vt 0.250000 -0.151515
vt 0.500000 -0.454545
vt 0.250000 -0.454545
vt 0.250000 -0.121212
vt 0.250000 -0.121212
vt 0.250000 -0.454545
vt 0.500000 -0.454545
vt 0.500000 -0.454545
vt 0.250000 -0.454545
vt 0.500000 -0.818182
vt 0.250000 -0.818182
vt 0.250000 -0.454545
vt 0.500000 -0.454545
vt 0.250000 -0.818182
vt 0.250000 -0.818182
vt 0.250000 -0.818182
vt 0.250000 -0.818182
vt 0.000000 -0.969697
vt 0.000000 -0.969697
vt 0.500000 -0.818182
vt 0.250000 -0.818182
vt 0.500000 -0.969697
vt 0.000000 -0.969697
vt 0.250000 -0.818182
vt 0.250000 -0.818182
vt 0.000000 -0.969697
vt 0.500000 -0.969697
vt 0.250000 -0.121212
vt 0.250000 -0.121212
vt 0.500000 -0.030303
vt 0.250000 -0.030303
vt 0.250000 -0.151515
vt 0.500000 -0.151515
vt 0.250000 -0.060606
vt 0.500000 -0.060606
vt 0.500000 -0.030303
vt 0.500000 -0.030303
vt 0.750000 -0.030303
vt 0.250000 -0.030303
vt 0.500000 -0.969697
vt 0.250000 -0.818182
vt 0.500000 -0.818182
vt 0.500000 -0.818182
vt 0.500000 -0.969697
vt 0.500000 -0.969697
vt 0.750000 -0.060606
vt 0.500000 -0.030303
vt 0.500000 -0.030303
vt 0.500000 -0.030303
vt 0.750000 -0.030303
vt 0.750000 -0.060606
vt 0.250000 -0.030303
vt 0.500000 -0.030303
vt 0.500000 -0.030303
vt 0.500000 -0.030303
vt 0.250000 -0.060606
vt 0.250000 -0.030303
g studio.crowbar.mesh_0
usemtl material_0
f 12/3/3 17/2/3 18/1/3
f 11/4/3 17/2/3 12/3/3
f 9/5/3 11/4/3 12/3/3
f 10/6/3 11/4/3 9/5/3
f 22/7/3 10/6/3 9/5/3
f 24/8/3 10/6/3 22/7/3
f 26/9/3 24/8/3 22/7/3
f 28/10/3 24/8/3 26/9/3
f 30/11/3 28/10/3 26/9/3
f 32/12/3 28/10/3 30/11/3
f 14/15/5 20/14/5 19/13/5
f 16/16/5 20/14/5 14/15/5
f 13/17/5 16/16/5 14/15/5
f 15/18/5 16/16/5 13/17/5
f 23/19/5 15/18/5 13/17/5
f 21/20/5 15/18/5 23/19/5
f 27/21/5 21/20/5 23/19/5
f 25/22/5 21/20/5 27/21/5
f 31/23/5 25/22/5 27/21/5
f 29/24/5 25/22/5 31/23/5
f 28/27/2 23/26/2 24/25/2
f 27/28/2 23/26/2 28/27/2
f 32/29/2 27/28/2 28/27/2
f 31/30/2 27/28/2 32/29/2
f 4/31/2 31/30/2 32/29/2
f 3/32/2 31/30/2 4/31/2
f 25/35/16 22/34/16 21/33/16
f 26/36/16 22/34/16 25/35/16
f 29/37/16 26/36/16 25/35/16
f 30/38/16 26/36/16 29/37/16
f 3/41/1 1/40/1 2/39/1
f 4/42/1 1/40/1 3/41/1
f 7/45/2 5/44/2 6/43/2
f 8/46/2 5/44/2 7/45/2
f 14/49/4 10/48/4 13/47/4
f 11/50/4 10/48/4 14/49/4
f 12/53/6 15/52/6 9/51/6
f 16/54/6 15/52/6 12/53/6
f 19/57/7 11/56/7 14/55/7
f 17/58/7 11/56/7 19/57/7
f 18/61/8 16/60/8 12/59/8
f 20/62/8 16/60/8 18/61/8
f 6/65/9 18/64/9 17/63/9
f 5/66/9 18/64/9 6/65/9
f 7/69/10 17/68/10 19/67/10
f 6/70/10 17/68/10 7/69/10
f 5/73/13 20/72/13 18/71/13
f 8/74/13 20/72/13 5/73/13
f 21/77/14 9/76/14 15/75/14
f 22/78/14 9/76/14 21/77/14
f 24/81/15 13/80/15 10/79/15
f 23/82/15 13/80/15 24/81/15
f 2/85/17 30/84/17 29/83/17
f 1/86/17 30/84/17 2/85/17
f 19/89/11 20/88/11 8/87/11
f 8/92/12 7/91/12 19/90/12
f 29/95/18 31/94/18 3/93/18
f 3/98/19 2/97/19 29/96/19
f 32/101/20 30/100/20 1/99/20
f 1/104/21 4/103/21 32/102/21
